Land_normalized_Motion_pl13
version=1
nRows=25
nColumns=43
inDegrees=yes
endheader
time		pelvis_tilt		pelvis_list		pelvis_rotation		pelvis_tx		pelvis_ty		pelvis_tz		hip_flexion_r		hip_adduction_r		hip_rotation_r		knee_angle_r		ankle_angle_r		subtalar_angle_r		mtp_angle_r		hip_flexion_l		hip_adduction_l		hip_rotation_l		knee_angle_l		ankle_angle_l		subtalar_angle_l		mtp_angle_l		lumbar_extension		lumbar_bending		lumbar_rotation		neck_flexion		neck_lateral_bending		neck_rotation		arm_flex_r		arm_add_r		arm_rot_r		elbow_flex_r		pro_sup_r		wrist_flex_r		wrist_dev_r		hand_finger_flex_r		arm_flex_l		arm_add_l		arm_rot_l		elbow_flex_l		pro_sup_l		wrist_flex_l		wrist_dev_l		hand_finger_flex_l		
0.967500		0.457227		-0.192099		86.296078		-0.005146		0.998180		0.569699		34.683142		-2.611458		-7.146140		-34.817756		-27.364389		6.981413		20.360100		28.845860		-8.954592		-13.833087		-30.703346		-25.806792		13.582846		24.666430		-27.774341		0.618949		0.176199		-33.355842		-6.281333		2.577328		-70.526900		-19.019197		-45.528046		82.889093		111.046875		-4.415215		-1.545827		18.654180		-74.880956		-12.862965		-38.938255		79.424974		110.408083		-3.057379		-8.747264		20.856307		
0.970732		0.448646		0.033248		86.264079		-0.005361		0.984043		0.564655		34.988147		-2.622373		-6.959565		-35.574694		-27.679277		7.038632		20.585055		29.212896		-8.951035		-13.319108		-31.819608		-26.116520		13.439136		24.745638		-28.085586		0.572970		0.152404		-33.097002		-6.150737		2.682379		-70.131229		-19.083188		-46.070577		83.385824		111.127721		-4.600709		-1.608040		18.705217		-74.504472		-12.656887		-39.527008		79.595128		110.039767		-2.986208		-8.678966		20.799117		
0.973965		0.496175		-0.049485		86.372959		-0.005784		0.969245		0.559898		35.631155		-2.662297		-7.010753		-36.323621		-27.804109		7.174154		22.821024		30.045258		-8.869874		-12.327211		-33.090190		-25.824106		13.162612		25.339948		-28.061953		0.660360		-0.049180		-32.808496		-6.002527		2.867376		-69.606523		-19.229364		-46.635708		83.902357		111.506806		-4.812289		-1.610476		19.069770		-74.074492		-12.433378		-40.119567		79.687716		109.361381		-2.474740		-8.411480		20.578603		
0.977197		0.514375		0.087512		86.358821		-0.005991		0.954881		0.555272		36.038556		-2.594965		-6.695882		-37.112158		-26.957266		7.174234		24.760186		30.624055		-8.836202		-11.605612		-34.506554		-24.766468		12.945917		25.843656		-28.363721		0.644007		-0.077547		-32.232161		-5.875831		2.917210		-68.982821		-19.357986		-47.123682		84.367354		111.660990		-5.038770		-1.643330		19.291621		-73.490992		-12.356489		-40.647109		79.768155		109.039985		-2.354812		-8.291514		20.345808		
0.980429		0.520563		0.202020		86.267253		-0.006242		0.940377		0.550571		36.429514		-2.522087		-6.336288		-38.027630		-25.153718		7.553618		31.428973		31.214277		-8.878232		-11.065350		-36.282433		-21.595088		13.925263		27.742380		-28.617640		0.600370		-0.055097		-31.665173		-5.708919		2.991480		-68.354741		-19.716799		-47.418957		84.757921		111.763887		-5.355028		-1.636065		19.821611		-72.852061		-12.358051		-41.090704		79.795799		109.272428		-2.136201		-8.359807		20.183951		
0.983662		0.434467		0.381660		86.158527		-0.006447		0.926067		0.546025		36.777104		-2.446363		-5.737825		-39.312014		-21.446885		8.055484		32.608495		31.697344		-8.713358		-10.482487		-38.287635		-16.720793		13.716706		28.172938		-28.962140		0.453139		-0.046527		-31.189067		-5.538825		3.179995		-67.549003		-19.967568		-47.792066		85.166536		111.820277		-5.509750		-1.690022		19.854410		-72.095693		-12.414570		-41.513764		79.839340		109.184666		-2.225766		-8.333026		20.198482		
0.986894		0.395330		0.452693		86.074502		-0.006559		0.911467		0.541557		37.147234		-2.307827		-5.137796		-40.815525		-16.216065		8.964211		33.746642		32.332382		-8.673482		-10.002411		-40.657853		-10.517418		14.472488		28.615960		-29.198544		0.352948		-0.051809		-30.615549		-5.348151		3.326307		-66.659369		-20.277842		-48.111906		85.557911		111.950780		-5.610970		-1.740818		19.946429		-71.277369		-12.487196		-41.947162		79.843975		109.200652		-2.284634		-8.312469		20.278282		
0.990126		0.388074		0.566177		85.996077		-0.006639		0.896919		0.537140		37.452660		-2.103113		-4.540193		-42.642871		-10.038009		9.701388		34.075812		32.934245		-8.667049		-9.621738		-43.286336		-3.535768		15.185887		28.878752		-29.503470		0.276511		-0.038090		-29.966075		-5.148478		3.482488		-65.720961		-20.677897		-48.339648		85.913221		112.101819		-5.664594		-1.813082		20.065974		-70.405161		-12.633379		-42.325601		79.861693		109.286211		-2.361714		-8.311616		20.368011		
0.993359		0.457311		0.715852		85.858406		-0.006608		0.882494		0.533026		37.774967		-1.783287		-4.033859		-44.870083		-2.726504		10.754198		29.351766		33.574377		-8.812264		-9.331806		-46.161913		3.380390		16.447232		28.391668		-29.899129		0.237509		0.065053		-29.186364		-4.960637		3.621662		-64.662864		-21.179453		-48.500515		86.229109		112.332140		-5.726435		-1.924263		20.460388		-69.453899		-12.828890		-42.660391		79.935582		109.545877		-2.465321		-8.389055		20.602870		
0.996591		0.439095		0.828503		85.797817		-0.006685		0.868390		0.529376		38.300182		-1.525698		-3.522432		-47.364292		3.915419		10.949404		23.561829		34.390085		-8.705385		-8.886942		-49.134529		9.551376		16.024060		27.500731		-30.335471		0.146681		0.086055		-28.310092		-4.792308		3.805033		-63.415015		-21.680555		-48.540333		86.465554		112.433898		-5.850844		-2.008862		20.777905		-68.322482		-13.118621		-42.961141		79.934402		109.648916		-2.649938		-8.412092		20.718839		
0.999823		0.435735		0.846027		85.739223		-0.006877		0.854464		0.526313		39.218388		-1.230202		-3.016716		-50.115813		8.862398		10.357673		23.191622		35.564343		-8.577660		-8.311398		-52.335511		14.503684		15.272712		27.335983		-30.753560		0.090011		0.103678		-27.389297		-4.603973		4.028217		-62.048989		-22.231878		-48.542431		86.725878		112.437928		-5.894222		-2.090573		20.781277		-66.996786		-13.362541		-43.278846		79.881348		109.576408		-2.856759		-8.381977		20.613097		
1.003056		0.530965		0.345935		85.785167		-0.007228		0.839898		0.524218		41.174690		-0.846348		-2.669606		-53.500066		13.879331		9.924928		12.251072		37.816889		-8.483152		-7.386309		-55.970109		17.492292		14.278342		24.198162		-30.711048		0.232395		0.097490		-26.412395		-4.490868		4.117612		-60.496232		-22.740495		-48.575223		86.974986		112.423941		-6.148273		-2.190377		21.140181		-65.559963		-13.657878		-43.547676		79.792284		109.683564		-2.896411		-8.421013		20.170629		
1.006288		0.552931		-0.082913		85.652075		-0.007293		0.825918		0.522668		43.567939		-0.372799		-2.124751		-57.173766		15.862224		8.360701		12.261003		40.235849		-8.407390		-6.580729		-59.745725		19.222671		13.195482		23.852268		-30.832757		0.174636		0.131363		-25.268972		-4.334587		4.421070		-58.731129		-23.501282		-48.338624		87.090455		112.358927		-6.151682		-2.273173		21.125349		-64.081565		-13.992999		-43.736621		79.734381		109.525084		-3.066590		-8.431515		20.018407		
1.009520		0.583236		-0.876124		85.578576		-0.007593		0.811538		0.521755		46.778572		0.115446		-1.646355		-61.138639		16.470652		6.475612		12.167316		43.465997		-8.261171		-5.571058		-63.803052		19.397389		11.745787		23.503497		-30.617765		0.213338		0.222542		-24.072306		-4.241111		4.569970		-56.950504		-24.203368		-48.117353		87.201898		112.276143		-6.252018		-2.340159		21.095323		-62.414266		-14.394744		-43.881114		79.605947		109.359727		-3.249959		-8.434091		19.773195		
1.012753		0.589742		-1.710275		85.476088		-0.007954		0.797350		0.520991		50.330217		0.566775		-1.245788		-65.248732		16.036343		4.728934		12.292440		46.946299		-8.105671		-4.614750		-67.910361		18.680636		10.357124		23.282769		-30.380049		0.239739		0.304631		-22.838354		-4.136714		4.643624		-55.067083		-24.942914		-47.840567		87.301079		112.205740		-6.391574		-2.390962		21.050610		-60.626784		-14.822921		-43.954631		79.371136		109.137199		-3.443539		-8.399034		19.471731		
1.015985		0.577354		-2.512887		85.372122		-0.008322		0.783338		0.520120		53.963684		0.966912		-0.927725		-69.318981		14.907139		3.189654		12.830168		50.502700		-7.915674		-3.707457		-72.011515		17.539590		9.102015		23.185430		-30.145477		0.246380		0.437669		-21.710208		-4.091750		4.665628		-53.191354		-25.721810		-47.470356		87.358700		112.190068		-6.545747		-2.420083		21.003253		-58.836503		-15.298186		-43.996173		79.213303		108.816340		-3.678304		-8.377708		19.126071		
1.019217		0.578308		-3.113708		85.241792		-0.008602		0.769948		0.518987		57.302980		1.333203		-0.727885		-73.195945		13.497464		1.879875		13.744646		53.770284		-7.763643		-2.917225		-75.932428		16.381300		8.058830		23.194804		-30.123155		0.242751		0.568006		-20.550862		-4.023339		4.650407		-51.211926		-26.522714		-47.034887		87.396694		112.247030		-6.707209		-2.427257		20.958083		-56.938632		-15.793868		-43.988742		78.941238		108.440129		-3.988477		-8.321894		18.787873		
1.022449		0.659022		-3.538677		85.128672		-0.008769		0.757157		0.517508		60.277185		1.693686		-0.702616		-76.840855		11.947106		0.670320		15.596373		56.713194		-7.644199		-2.132476		-79.634988		15.392791		7.129144		23.335588		-30.263382		0.286422		0.730677		-19.482314		-3.958532		4.551372		-49.124601		-27.398646		-46.437909		87.288278		112.425918		-6.887919		-2.377148		20.971450		-55.086427		-16.408033		-43.789493		78.709883		107.953480		-4.377823		-8.280285		18.463822		
1.025682		0.743934		-3.198816		84.953733		-0.008786		0.746300		0.515760		62.086819		1.983219		-0.708926		-80.070021		10.802224		0.052607		18.076348		58.545776		-7.559972		-1.506038		-83.039525		14.919226		6.816896		23.610311		-31.344893		0.241978		0.971347		-18.071684		-3.895052		4.304651		-46.937855		-28.202616		-45.875979		87.272972		112.623039		-7.104343		-2.327665		21.155821		-52.909000		-16.990429		-43.675793		78.421984		107.479502		-4.927751		-8.174569		18.356368		
1.028914		0.965357		-2.994380		84.836763		-0.008666		0.735518		0.513884		63.836823		2.352817		-0.910502		-83.051406		9.238511		-1.284736		23.695495		60.410171		-7.552956		-0.786073		-86.258078		14.162852		6.372341		24.268656		-32.224266		0.341807		1.230105		-17.031107		-3.862203		4.175664		-44.666753		-29.098751		-45.088635		87.111537		112.980023		-7.520638		-2.211560		21.736138		-50.838278		-17.685216		-43.296352		78.136414		106.613271		-5.799429		-8.098542		18.387696		
1.032146		1.109993		-2.293080		84.574865		-0.008223		0.726232		0.512054		64.826868		2.775286		-0.965771		-85.806172		8.774423		-1.902240		24.043040		61.456620		-7.609577		-0.267015		-89.162410		13.495092		6.183984		24.367139		-33.744771		0.202510		1.485963		-15.712593		-3.761535		4.058093		-42.114032		-30.023628		-44.161519		86.870152		113.163397		-7.559711		-2.110509		21.773598		-48.638282		-18.287203		-43.201776		77.955995		106.507963		-6.138910		-8.032219		18.342776		
1.035379		1.327144		-1.395330		84.373309		-0.007865		0.717883		0.510369		65.390929		3.162560		-1.120082		-88.255145		8.449587		-2.601089		24.595489		62.114287		-7.671971		0.302015		-91.816224		12.785469		6.133108		24.508699		-35.551140		0.133641		1.697591		-14.340100		-3.641579		3.961835		-39.423553		-31.010006		-43.064354		86.607770		113.435417		-7.690559		-1.962101		21.914611		-46.359714		-18.920988		-42.986925		77.758101		106.175015		-6.651473		-7.958005		18.310675		
1.038611		1.535201		-0.178057		84.221074		-0.007712		0.710756		0.508822		65.433226		3.456718		-1.252530		-90.423299		8.275210		-3.259514		25.471675		62.214008		-7.689494		0.802295		-94.158255		12.181708		6.247442		24.789853		-37.784616		0.057108		1.814478		-12.905399		-3.460153		4.025446		-36.589170		-32.073965		-41.783593		86.341113		113.682775		-7.987484		-1.758467		22.342800		-43.997309		-19.596458		-42.649096		77.553603		105.471311		-7.394291		-7.813904		18.404980		
1.041843		1.640075		1.159817		84.078975		-0.007773		0.704338		0.507440		65.250827		3.641496		-1.246054		-92.386833		8.179180		-3.686844		26.654560		62.008546		-7.658497		1.112575		-96.231629		11.637912		6.479411		25.306729		-40.206435		-0.112046		1.840399		-11.353589		-3.261496		4.131352		-33.640169		-33.181018		-40.342579		86.035006		113.784705		-8.497589		-1.526783		23.191491		-41.595094		-20.309624		-42.215023		77.378293		104.436861		-8.340536		-7.587134		18.744277		
1.045076		1.596316		2.378573		83.962002		-0.007951		0.697923		0.506334		65.183975		3.742816		-1.003889		-94.220554		8.049924		-3.711419		27.839646		61.831585		-7.587628		1.217113		-98.116747		11.278684		6.669529		26.194932		-42.524923		-0.391167		1.717753		-9.652172		-3.080792		4.104930		-30.516431		-34.222567		-38.727709		85.683671		113.686402		-9.270773		-1.291402		24.504883		-39.337804		-21.186741		-41.581785		77.307384		103.263052		-9.342237		-7.332252		19.442704		
